<svg width="50" height="50" viewBox="0 0 50 50" fill="none" xmlns="http://www.w3.org/2000/svg">
<g clip-path="url(#clip0_120_15)">
<path fill-rule="evenodd" clip-rule="evenodd" d="M23.5375 4.5728C24.3596 4.2652 25.2579 4.2251 26.1042 4.45822L26.4625 4.5728L41.0458 10.0416C41.7853 10.3188 42.4307 10.8005 42.9069 11.4305C43.383 12.0605 43.6704 12.8129 43.7354 13.5999L43.75 13.9436V25.1165C43.7499 28.4924 42.8384 31.8057 41.1117 34.7065C39.3849 37.6074 36.9071 39.9883 33.9396 41.5978L33.3854 41.8874L26.3979 45.3811C26.0132 45.5732 25.5929 45.6839 25.1635 45.7061C24.734 45.7283 24.3046 45.6617 23.9021 45.5103L23.6021 45.3811L16.6146 41.8874C13.595 40.3776 11.0391 38.0805 9.21668 35.2387C7.39423 32.3968 6.37288 29.1157 6.26042 25.7415L6.25 25.1165V13.9436C6.25001 13.1543 6.47422 12.3812 6.89653 11.7144C7.31884 11.0476 7.92186 10.5144 8.63542 10.177L8.95417 10.0416L23.5375 4.5728ZM32.1521 17.977L22.5729 27.5561L18.8896 23.8728C18.4987 23.4822 17.9686 23.2628 17.4159 23.263C16.8633 23.2632 16.3334 23.4829 15.9427 23.8738C15.5521 24.2648 15.3327 24.7948 15.3329 25.3475C15.3331 25.9001 15.5528 26.4301 15.9437 26.8207L20.9521 31.829C21.1649 32.042 21.4176 32.2109 21.6957 32.3261C21.9738 32.4413 22.2719 32.5006 22.5729 32.5006C22.874 32.5006 23.172 32.4413 23.4501 32.3261C23.7283 32.2109 23.9809 32.042 24.1937 31.829L35.0979 20.9228C35.2969 20.7306 35.4556 20.5007 35.5648 20.2466C35.674 19.9924 35.7314 19.719 35.7339 19.4424C35.7363 19.1658 35.6835 18.8914 35.5788 18.6354C35.474 18.3794 35.3193 18.1468 35.1237 17.9511C34.9281 17.7555 34.6955 17.6008 34.4395 17.4961C34.1835 17.3913 33.9091 17.3386 33.6325 17.341C33.3559 17.3434 33.0825 17.4009 32.8283 17.5101C32.5741 17.6193 32.3443 17.778 32.1521 17.977Z" fill="#DB8049"/>
</g>
<defs>
<clipPath id="clip0_120_15">
<rect width="50" height="50" fill="white"/>
</clipPath>
</defs>
</svg>
