<svg width="50" height="50" viewBox="0 0 50 50" fill="none" xmlns="http://www.w3.org/2000/svg">
<path d="M39.5834 18.7498C39.5843 16.2392 38.9371 13.7709 37.7043 11.5838C36.4716 9.39663 34.695 7.56481 32.5467 6.26561C30.3984 4.9664 27.951 4.24382 25.4416 4.16782C22.9321 4.09181 20.4455 4.66495 18.2225 5.83176C15.9995 6.99857 14.1154 8.71952 12.7525 10.828C11.3896 12.9365 10.5942 15.3612 10.4432 17.8673C10.2921 20.3733 10.7907 22.8759 11.8905 25.1329C12.9903 27.3898 14.6541 29.3245 16.7209 30.7498L10.4168 41.6665L15.1168 41.8603L17.6334 45.8332L24.8543 33.3248C24.9043 33.3248 24.9501 33.3332 25.0001 33.3332C25.0501 33.3332 25.0959 33.3269 25.1459 33.3248L32.3667 45.8332L34.9334 41.9457L39.5834 41.6665L33.2792 30.7498C35.2243 29.4107 36.8144 27.6186 37.9127 25.5281C39.0109 23.4375 39.5843 21.1113 39.5834 18.7498ZM14.5834 18.7498C14.5834 16.6896 15.1943 14.6757 16.3389 12.9627C17.4835 11.2496 19.1104 9.91451 21.0138 9.1261C22.9172 8.33768 25.0116 8.1314 27.0323 8.53333C29.0529 8.93526 30.909 9.92735 32.3658 11.3841C33.8226 12.8409 34.8147 14.697 35.2166 16.7176C35.6185 18.7383 35.4122 20.8327 34.6238 22.7361C33.8354 24.6395 32.5003 26.2664 30.7873 27.411C29.0743 28.5556 27.0603 29.1665 25.0001 29.1665C22.2374 29.1665 19.5879 28.069 17.6344 26.1155C15.6809 24.162 14.5834 21.5125 14.5834 18.7498Z" fill="#DB8049"/>
<path d="M25 25C28.4518 25 31.25 22.2018 31.25 18.75C31.25 15.2982 28.4518 12.5 25 12.5C21.5482 12.5 18.75 15.2982 18.75 18.75C18.75 22.2018 21.5482 25 25 25Z" fill="#DB8049"/>
</svg>
