<svg width="50" height="50" viewBox="0 0 50 50" fill="none" xmlns="http://www.w3.org/2000/svg">
<path d="M19.375 48.4375H7.39063C5.84944 48.4363 4.37172 47.8235 3.28194 46.7337C2.19215 45.6439 1.57937 44.1662 1.57812 42.625V21.9844C1.57812 19.6875 2.425 17.5484 3.75781 15.8016L3.76094 15.7984C6.03308 12.8463 7.48905 9.34865 7.98281 5.65625C8.27969 3.38594 10.1469 1.57812 12.5469 1.57812H34.9594C35.8422 1.57812 36.8797 1.57812 37.8422 1.59375C40.2109 1.60156 42.0859 3.42969 42.3625 5.69844C42.8129 9.28606 44.185 12.6958 46.3453 15.5953L46.35 15.6016C47.6234 17.3234 48.4531 19.4234 48.4531 21.6719V42.625C48.4519 44.1662 47.8391 45.6439 46.7493 46.7337C45.6595 47.8235 44.1818 48.4363 42.6406 48.4375H30.6875C29.5986 48.4386 28.5234 48.1941 27.5419 47.7224C26.5605 47.2506 25.698 46.5636 25.0187 45.7125C24.3454 46.564 23.4876 47.2516 22.5101 47.7236C21.5325 48.1956 20.4606 48.4397 19.375 48.4375ZM15.6406 4.70312V34.375H23.4375V20.325L17.9531 5.15625C17.8986 4.99962 17.8307 4.84801 17.75 4.70312H15.6406ZM32.2828 4.70312C32.2047 4.84688 32.1344 4.99844 32.0781 5.15625L26.5875 20.325V34.375H34.3906V4.70312H32.2828ZM12.5156 4.70312C11.8031 4.71875 11.1875 5.25156 11.0812 6.0625C10.5161 10.299 8.84674 14.3124 6.24062 17.7C5.26094 18.9844 4.70312 20.4703 4.70312 21.9844V34.375H12.5156V4.70312ZM4.70312 37.5V42.625C4.70312 44.1063 5.90938 45.3125 7.39063 45.3125H19.375C20.4022 45.3146 21.3921 44.9277 22.1458 44.2297C22.8994 43.5317 23.3609 42.5744 23.4375 41.55V37.5H4.70312ZM26.5875 41.5469C26.6724 42.575 27.1414 43.5335 27.9012 44.2313C28.661 44.9292 29.6558 45.3152 30.6875 45.3125H42.6406C44.1219 45.3125 45.3281 44.1063 45.3281 42.625V37.5H26.5875V41.5469ZM45.3281 34.375V21.6719C45.3281 20.2031 44.7844 18.7422 43.8391 17.4625C41.356 14.13 39.7787 10.211 39.2609 6.0875V6.07813C39.1625 5.25938 38.5141 4.71875 37.8281 4.71875H37.8031C37.7073 4.71702 37.6115 4.71546 37.5156 4.71406V34.375H45.3281Z" fill="#DB8049"/>
</svg>
