<svg width="50" height="50" viewBox="0 0 50 50" fill="none" xmlns="http://www.w3.org/2000/svg">
<path d="M15.6104 39.0625C14.725 39.0625 13.9021 38.5708 13.5792 37.7458C12.8641 35.9256 12.498 33.987 12.5 32.0312C12.4946 28.5293 13.6705 25.128 15.8375 22.3771C16.1521 21.9771 16.6146 21.7333 17.0875 21.55C18.0729 21.1687 18.9417 20.4792 19.6125 19.625C21.2298 17.5617 23.2599 15.8588 25.5729 14.625C27.0792 13.825 28.3854 12.6333 29.0167 11.0521C29.46 9.94427 29.6877 8.76198 29.6875 7.56875V6.25C29.6875 5.8356 29.8521 5.43817 30.1452 5.14515C30.4382 4.85212 30.8356 4.6875 31.25 4.6875C32.4932 4.6875 33.6855 5.18136 34.5646 6.06044C35.4437 6.93951 35.9375 8.1318 35.9375 9.375C35.9375 11.775 35.3959 14.0479 34.4313 16.0792C33.8771 17.2417 34.6542 18.75 35.9417 18.75H42.4542C44.5917 18.75 46.5063 20.1958 46.7334 22.3229C46.8271 23.2021 46.875 24.0937 46.875 25C46.8836 30.7007 44.9355 36.2317 41.3563 40.6687C40.5479 41.6729 39.3 42.1875 38.0125 42.1875H29.6459C28.6384 42.187 27.6376 42.0253 26.6813 41.7083L20.1938 39.5417C19.2377 39.2237 18.2367 39.0619 17.2292 39.0625H15.6104ZM4.85627 22.8687C3.70819 25.7869 3.12084 28.8954 3.12502 32.0312C3.12239 34.5069 3.48749 36.9692 4.20836 39.3375C4.75002 41.1083 6.46669 42.1875 8.31877 42.1875H10.2084C11.1354 42.1875 11.7084 41.15 11.2979 40.3167C10.0274 37.7397 9.36864 34.9044 9.37294 32.0312C9.37294 28.4729 10.3646 25.1458 12.0854 22.3104C12.5959 21.4708 12.0271 20.3125 11.0438 20.3125H8.85419C7.12086 20.3125 5.49377 21.2562 4.85627 22.8687Z" fill="#DB8049"/>
</svg>
